<!-- Exported by Character Map UWP -->
<svg height="100%" viewBox="0 0 1024 1024" width="100%" xmlns="http://www.w3.org/2000/svg" xmlns:xlink="http://www.w3.org/1999/xlink">
  <path d="M192,716.5C188.333,717.833 182.167,720 173.5,723C164.833,726 154.917,729.417 143.75,733.25C132.583,737.083 121,741 109,745C97,749 85.6667,752.75 75,756.25C64.3333,759.75 55.0833,762.583 47.25,764.75C39.4167,766.917 34.3333,768 32,768C23,768 15.4167,764.75 9.25,758.25C3.08333,751.75 0,744.167 0,735.5C0,733.167 1,727.917 3,719.75C5,711.583 7.58333,701.917 10.75,690.75C13.9167,679.583 17.3333,667.583 21,654.75C24.6667,641.917 28.25,629.667 31.75,618C35.25,606.333 38.4167,596 41.25,587C44.0833,578 46,571.667 47,568C15.6667,510.333 0,449 0,384C0,348.667 4.58333,314.667 13.75,282C22.9167,249.333 35.8333,218.75 52.5,190.25C69.1667,161.75 89.1667,135.833 112.5,112.5C135.833,89.1667 161.75,69.1667 190.25,52.5C218.75,35.8334 249.333,22.9167 282,13.75C314.667,4.58337 348.667,0 384,0C437,0 486.75,10.0834 533.25,30.25C579.75,50.4167 620.417,77.9167 655.25,112.75C690.083,147.583 717.583,188.25 737.75,234.75C757.917,281.25 768,331 768,384C768,419.333 763.417,453.333 754.25,486C745.083,518.667 732.167,549.25 715.5,577.75C698.833,606.25 678.833,632.167 655.5,655.5C632.167,678.833 606.25,698.833 577.75,715.5C549.25,732.167 518.667,745.083 486,754.25C453.333,763.417 419.333,768 384,768C350.333,768 317.25,763.667 284.75,755C252.25,746.333 221.333,733.5 192,716.5ZM704,384C704,339.667 695.667,298.083 679,259.25C662.333,220.417 639.5,186.5 610.5,157.5C581.5,128.5 547.583,105.667 508.75,89C469.917,72.3334 428.333,64.0001 384,64C339.667,64.0001 298.083,72.3334 259.25,89C220.417,105.667 186.5,128.5 157.5,157.5C128.5,186.5 105.667,220.417 89,259.25C72.3333,298.083 64,339.667 64,384C64,414.333 67.9167,442.5 75.75,468.5C83.5833,494.5 94.5,520.833 108.5,547.5C110.167,550.167 111.333,552.75 112,555.25C112.667,557.75 113,560.667 113,564C113,566.667 112.333,571.083 111,577.25C109.667,583.417 107.917,590.417 105.75,598.25C103.583,606.083 101.167,614.417 98.5,623.25C95.8333,632.083 93.25,640.583 90.75,648.75C88.25,656.917 86,664.417 84,671.25C82,678.083 80.5,683.167 79.5,686.5C84.1667,685.167 92.1667,682.417 103.5,678.25C114.833,674.083 126.75,669.917 139.25,665.75C151.75,661.583 163.333,657.833 174,654.5C184.667,651.167 191.667,649.5 195,649.5C201.333,649.5 207.333,651.167 213,654.5C227,662.5 240.667,669.5 254,675.5C267.333,681.5 280.917,686.667 294.75,691C308.583,695.333 322.833,698.583 337.5,700.75C352.167,702.917 367.667,704 384,704C428.333,704 469.917,695.667 508.75,679C547.583,662.333 581.5,639.5 610.5,610.5C639.5,581.5 662.333,547.583 679,508.75C695.667,469.917 704,428.333 704,384ZM288,352C279.333,352 271.833,348.833 265.5,342.5C259.167,336.167 256,328.667 256,320C256,311.333 259.167,303.833 265.5,297.5C271.833,291.167 279.333,288 288,288L480,288C488.667,288 496.167,291.167 502.5,297.5C508.833,303.833 512,311.333 512,320C512,328.667 508.833,336.167 502.5,342.5C496.167,348.833 488.667,352 480,352ZM303.5,824.5C329.833,829.5 356.667,832 384,832C415,872.667 452.583,904.167 496.75,926.5C540.917,948.833 588.667,960 640,960C656.333,960 671.75,958.917 686.25,956.75C700.75,954.583 714.917,951.417 728.75,947.25C742.583,943.083 756.25,937.917 769.75,931.75C783.25,925.583 797,918.5 811,910.5C816.667,907.167 822.667,905.5 829,905.5C832.333,905.5 839.333,907.167 850,910.5C860.667,913.833 872.25,917.583 884.75,921.75C897.25,925.917 909.167,930.083 920.5,934.25C931.833,938.417 939.833,941.167 944.5,942.5C943.5,939.167 942,934.083 940,927.25C938,920.417 935.75,912.917 933.25,904.75C930.75,896.583 928.167,888.083 925.5,879.25C922.833,870.417 920.417,862.083 918.25,854.25C916.083,846.417 914.333,839.417 913,833.25C911.667,827.083 911,822.667 911,820C911,816.667 911.333,813.75 912,811.25C912.667,808.75 913.833,806.167 915.5,803.5C922.5,790.167 928.75,777 934.25,764C939.75,751 944.417,737.833 948.25,724.5C952.083,711.167 955,697.583 957,683.75C959,669.917 960,655.333 960,640C960,615 957.083,590.417 951.25,566.25C945.417,542.083 937,519 926,497C915,475 901.583,454.417 885.75,435.25C869.917,416.083 852,399 832,384C832,357.667 829.667,330.833 825,303.5C855.333,319.833 882.75,340 907.25,364C931.75,388 952.667,414.5 970,443.5C987.333,472.5 1000.67,503.5 1010,536.5C1019.33,569.5 1024,603.167 1024,637.5C1024,670.833 1020.25,702.917 1012.75,733.75C1005.25,764.583 993.5,794.667 977.5,824C978.5,827.667 980.417,834.083 983.25,843.25C986.083,852.417 989.167,862.833 992.5,874.5C995.833,886.167 999.417,898.417 1003.25,911.25C1007.08,924.083 1010.5,936.083 1013.5,947.25C1016.5,958.417 1019,968 1021,976C1023,984 1024,989.167 1024,991.5C1024,1000.17 1020.92,1007.75 1014.75,1014.25C1008.58,1020.75 1001,1024 992,1024C989.667,1024 984.583,1022.92 976.75,1020.75C968.917,1018.58 959.75,1015.75 949.25,1012.25C938.75,1008.75 927.417,1005 915.25,1001C903.083,997 891.5,993.083 880.5,989.25C869.5,985.417 859.667,982 851,979C842.333,976 836.167,973.833 832.5,972.5C801.167,990.167 769.5,1003.17 737.5,1011.5C705.5,1019.83 671.667,1024 636,1024C601.667,1024 568.083,1019.25 535.25,1009.75C502.417,1000.25 471.583,986.833 442.75,969.5C413.917,952.167 387.583,931.167 363.75,906.5C339.917,881.833 319.833,854.5 303.5,824.5ZM288,480C279.333,480 271.833,476.833 265.5,470.5C259.167,464.167 256,456.667 256,448C256,439.333 259.167,431.833 265.5,425.5C271.833,419.167 279.333,416 288,416L416,416C424.667,416 432.167,419.167 438.5,425.5C444.833,431.833 448,439.333 448,448C448,456.667 444.833,464.167 438.5,470.5C432.167,476.833 424.667,480 416,480Z" fill="#FFFFFF" fill-opacity="1">
  </path>
</svg>